<svg width="24" height="24" viewBox="0 0 24 24" fill="none" xmlns="http://www.w3.org/2000/svg">
<path d="M19.2296 15.2578L16.6896 14.9678C16.3909 14.9327 16.0882 14.9658 15.8041 15.0645C15.5201 15.1632 15.2621 15.3251 15.0496 15.5378L13.2096 17.3778C10.3707 15.934 8.06333 13.6266 6.61955 10.7878L8.46955 8.93781C8.89955 8.50781 9.10955 7.90781 9.03955 7.29781L8.74955 4.77781C8.69286 4.28999 8.45875 3.84005 8.09179 3.51366C7.72483 3.18727 7.25066 3.00723 6.75955 3.00781H5.02955C3.89955 3.00781 2.95955 3.94781 3.02955 5.07781C3.55955 13.6178 10.3896 20.4378 18.9196 20.9678C20.0496 21.0378 20.9896 20.0978 20.9896 18.9678V17.2378C20.9996 16.2278 20.2396 15.3778 19.2296 15.2578Z" fill="#333333"/>
</svg>
