<svg width="48" height="48" viewBox="0 0 48 48" fill="none" xmlns="http://www.w3.org/2000/svg">
<path fill-rule="evenodd" clip-rule="evenodd" d="M18.9173 1.2C18.9173 0.88174 18.7963 0.576516 18.5807 0.351472C18.3652 0.126428 18.0729 0 17.7681 0H14.8952C14.5904 0 14.2981 0.126428 14.0826 0.351472C13.867 0.576516 13.746 0.88174 13.746 1.2V15.8184C13.7455 15.9385 13.721 16.0573 13.6741 16.167C13.6272 16.2767 13.5589 16.375 13.4736 16.4556C11.7514 18.0753 10.3743 20.0547 9.43135 22.2655C8.48844 24.4764 8.00079 26.8694 8 29.2896V45.3504C8 46.8144 9.13655 48 10.5374 48H21.3812C22.0993 48 22.7879 47.7021 23.2957 47.1719C23.8034 46.6417 24.0887 45.9226 24.0887 45.1728V28.8756C24.0887 24.2172 22.3166 19.7496 19.1621 16.4556C19.0057 16.2918 18.9178 16.0701 18.9173 15.8388V1.2ZM10.2984 30H21.7903V39.6H10.2984V30ZM37.4642 24H29.0992L29.8347 16.8H36.7298L37.4642 24ZM27.7661 14.4H38.7984L39.9625 25.8432C40.1423 27.6139 39.671 29.3897 38.6441 30.8112C37.6172 32.2326 36.1113 33.1935 34.4314 33.4992V45.6H37.879C38.1838 45.6 38.4761 45.7264 38.6916 45.9515C38.9071 46.1765 39.0282 46.4817 39.0282 46.8C39.0282 47.1183 38.9071 47.4235 38.6916 47.6485C38.4761 47.8736 38.1838 48 37.879 48H28.6855C28.3807 48 28.0884 47.8736 27.8729 47.6485C27.6574 47.4235 27.5363 47.1183 27.5363 46.8C27.5363 46.4817 27.6574 46.1765 27.8729 45.9515C28.0884 45.7264 28.3807 45.6 28.6855 45.6H32.1331V33.498C30.4534 33.1923 28.9477 32.2316 27.9208 30.8104C26.8939 29.3892 26.4225 27.6137 26.602 25.8432L27.7661 14.4Z" fill="#F7CE54"/>
</svg>
