<svg width="48" height="48" viewBox="0 0 48 48" fill="none" xmlns="http://www.w3.org/2000/svg">
<path d="M31.112 24C36.0952 24 40.1397 19.968 40.1397 15C40.1397 10.032 36.0952 6 31.112 6C26.1287 6 22.0843 10.032 22.0843 15C22.0843 19.968 26.1287 24 31.112 24ZM40.9521 34.08C40.248 33.36 39.3633 33 38.3341 33H25.6953L21.9398 31.686L22.5357 29.994L25.6953 31.2H30.7509C31.3828 31.2 31.8883 30.948 32.3036 30.534C32.7189 30.12 32.9175 29.616 32.9175 29.058C32.9175 28.086 32.4481 27.42 31.5092 27.042L18.3829 22.2H14.8621V38.4L27.5009 42L41.9994 36.6C42.0174 35.646 41.6563 34.8 40.9521 34.08ZM11.251 22.2H4V42H11.251V22.2Z" fill="#F7CE54"/>
</svg>
