<svg width="55" height="37" viewBox="0 0 55 37" fill="none" xmlns="http://www.w3.org/2000/svg">
<path d="M0 36.1737V33.0903H54.0817V36.1737H0ZM2.37417 28.8199V28.1108C2.37417 22.0469 4.44 16.8021 8.57167 12.3765C12.7074 7.955 17.8361 5.31361 23.9575 4.45233V3.08642C23.9575 2.26008 24.2648 1.53961 24.8794 0.925001C25.494 0.308334 26.2145 0 27.0408 0C27.8672 0 28.5876 0.308334 29.2023 0.925001C29.8169 1.54167 30.1242 2.26111 30.1242 3.08333V4.44925C36.26 5.31258 41.3907 7.955 45.5162 12.3765C49.6417 16.798 51.7054 22.0428 51.7075 28.1108V28.8199H2.37417ZM5.67333 25.7366H48.4083C47.9273 20.7087 45.6179 16.3879 41.4801 12.7742C37.3423 9.16058 32.5292 7.35581 27.0408 7.35992C21.5525 7.36403 16.7425 9.1688 12.6108 12.7742C8.47917 16.3797 6.16667 20.7005 5.67333 25.7366Z" fill="white"/>
</svg>
