<svg width="57" height="57" viewBox="0 0 57 57" fill="none" xmlns="http://www.w3.org/2000/svg">
<path d="M49.875 10.6875C49.875 9.74267 49.4997 8.83653 48.8316 8.16843C48.1635 7.50033 47.2573 7.125 46.3125 7.125H39.1875V3.5625H35.625V7.125H21.375V3.5625H17.8125V7.125H10.6875C9.74267 7.125 8.83653 7.50033 8.16843 8.16843C7.50033 8.83653 7.125 9.74267 7.125 10.6875V46.3125C7.125 47.2573 7.50033 48.1635 8.16843 48.8316C8.83653 49.4997 9.74267 49.875 10.6875 49.875H17.8125V46.3125H10.6875V10.6875H17.8125V14.25H21.375V10.6875H35.625V14.25H39.1875V10.6875H46.3125V21.375H49.875V10.6875Z" fill="white"/>
<path d="M37.4062 26.7188L41.9467 35.5146L51.6562 36.9235L44.5312 43.7707L46.3125 53.4375L37.4062 48.8739L28.5 53.4375L30.2812 43.7707L23.1562 36.9235L33.1313 35.5146L37.4062 26.7188Z" fill="white"/>
</svg>
