<svg width="48" height="48" viewBox="0 0 48 48" fill="none" xmlns="http://www.w3.org/2000/svg">
<path d="M32.4004 11.9969V12.0494C32.0029 12.0194 31.6054 11.9969 31.2004 11.9969H21.6004C20.3629 11.9969 19.1629 12.1544 18.0154 12.4469C18.0079 12.2969 18.0004 12.1469 18.0004 11.9969C18.0004 8.02188 21.2254 4.79688 25.2004 4.79688C29.1754 4.79688 32.4004 8.02188 32.4004 11.9969ZM31.2004 14.3969C31.4629 14.3969 31.7254 14.4044 31.9804 14.4194C32.2954 14.4419 32.6104 14.4719 32.9254 14.5169C34.2454 12.9794 36.2104 11.9969 38.4004 11.9969H39.2629C40.0429 11.9969 40.6129 12.7319 40.4254 13.4894L39.3904 17.6294C40.5754 18.7394 41.5429 20.0894 42.2029 21.5969H43.2004C44.5279 21.5969 45.6004 22.6694 45.6004 23.9969V31.1969C45.6004 32.5244 44.5279 33.5969 43.2004 33.5969H40.8004C40.1179 34.5044 39.3079 35.3144 38.4004 35.9969V40.7969C38.4004 42.1244 37.3279 43.1969 36.0004 43.1969H33.6004C32.2729 43.1969 31.2004 42.1244 31.2004 40.7969V38.3969H21.6004V40.7969C21.6004 42.1244 20.5279 43.1969 19.2004 43.1969H16.8004C15.4729 43.1969 14.4004 42.1244 14.4004 40.7969V35.9969C11.7829 34.0319 9.99789 31.0244 9.66039 27.5969H7.50039C4.68039 27.5969 2.40039 25.3169 2.40039 22.4969C2.40039 19.6769 4.68039 17.3969 7.50039 17.3969H7.80039C8.79789 17.3969 9.60039 18.1994 9.60039 19.1969C9.60039 20.1944 8.79789 20.9969 7.80039 20.9969H7.50039C6.67539 20.9969 6.00039 21.6719 6.00039 22.4969C6.00039 23.3219 6.67539 23.9969 7.50039 23.9969H9.84039C10.7479 19.5119 14.1679 15.9344 18.5629 14.7869C19.5304 14.5319 20.5504 14.3969 21.6004 14.3969H31.2004ZM36.0004 24.5969C36.0004 24.1195 35.8107 23.6616 35.4732 23.3241C35.1356 22.9865 34.6778 22.7969 34.2004 22.7969C33.723 22.7969 33.2652 22.9865 32.9276 23.3241C32.59 23.6616 32.4004 24.1195 32.4004 24.5969C32.4004 25.0743 32.59 25.5321 32.9276 25.8697C33.2652 26.2072 33.723 26.3969 34.2004 26.3969C34.6778 26.3969 35.1356 26.2072 35.4732 25.8697C35.8107 25.5321 36.0004 25.0743 36.0004 24.5969Z" fill="#F7CE54"/>
</svg>
