<svg width="50" height="50" viewBox="0 0 50 50" fill="none" xmlns="http://www.w3.org/2000/svg">
<g clip-path="url(#clip0_78_50)">
<path d="M33.9285 19.6429V12.5001M1.78564 39.2858L10.5142 46.5572C11.7973 47.6272 13.4149 48.2136 15.0856 48.2143H38.0964C39.7392 48.2143 41.0714 46.8822 41.0714 45.2393C41.0714 41.9536 38.4071 39.2858 35.1178 39.2858H19.1214M33.9285 30.3572C37.7173 30.3572 41.3509 28.8521 44.03 26.173C46.7091 23.4939 48.2142 19.8603 48.2142 16.0715C48.2142 12.2827 46.7091 8.64905 44.03 5.96996C41.3509 3.29086 37.7173 1.78577 33.9285 1.78577C30.1397 1.78577 26.5061 3.29086 23.827 5.96996C21.1479 8.64905 19.6428 12.2827 19.6428 16.0715C19.6428 19.8603 21.1479 23.4939 23.827 26.173C26.5061 28.8521 30.1397 30.3572 33.9285 30.3572Z" stroke="white" stroke-width="3" stroke-linecap="round" stroke-linejoin="round"/>
<path d="M12.4999 35.7143L15.1785 38.3929C15.8889 39.1033 16.8524 39.5024 17.8571 39.5024C18.8617 39.5024 19.8252 39.1033 20.5356 38.3929C21.246 37.6825 21.6451 36.719 21.6451 35.7143C21.6451 34.7097 21.246 33.7462 20.5356 33.0358L16.3785 28.8786C15.0393 27.539 13.2227 26.7862 11.3285 26.7858H1.78564" stroke="white" stroke-width="3" stroke-linecap="round" stroke-linejoin="round"/>
</g>
<defs>
<clipPath id="clip0_78_50">
<rect width="50" height="50" fill="white"/>
</clipPath>
</defs>
</svg>
