<svg width="20" height="20" viewBox="0 0 20 20" fill="none" xmlns="http://www.w3.org/2000/svg">
<path d="M2.5 5.83073C2.5 5.3887 2.67559 4.96478 2.98816 4.65222C3.30072 4.33966 3.72464 4.16406 4.16667 4.16406H15.8333C16.2754 4.16406 16.6993 4.33966 17.0118 4.65222C17.3244 4.96478 17.5 5.3887 17.5 5.83073V14.1641C17.5 14.6061 17.3244 15.03 17.0118 15.3426C16.6993 15.6551 16.2754 15.8307 15.8333 15.8307H4.16667C3.72464 15.8307 3.30072 15.6551 2.98816 15.3426C2.67559 15.03 2.5 14.6061 2.5 14.1641V5.83073Z" stroke="white" stroke-linecap="round" stroke-linejoin="round"/>
<path d="M2.5 5.82812L10 10.8281L17.5 5.82812" stroke="white" stroke-linecap="round" stroke-linejoin="round"/>
</svg>
