<svg width="40" height="40" viewBox="0 0 40 40" fill="none" xmlns="http://www.w3.org/2000/svg">
<g clip-path="url(#clip0_1_5040)">
<path d="M20 0C14.6969 0 9.60625 2.10844 5.85938 5.85781C2.10863 9.60868 0.00103897 14.6956 0 20C0 25.3022 2.10938 30.3928 5.85938 34.1422C9.60625 37.8916 14.6969 40 20 40C25.3031 40 30.3937 37.8916 34.1406 34.1422C37.8906 30.3928 40 25.3022 40 20C40 14.6978 37.8906 9.60719 34.1406 5.85781C30.3937 2.10844 25.3031 0 20 0Z" fill="url(#paint0_linear_1_5040)"/>
<path d="M9.0534 19.7881C14.8846 17.2481 18.7721 15.5734 20.7159 14.7643C26.2721 12.454 27.4253 12.0528 28.1784 12.0392C28.344 12.0365 28.7128 12.0775 28.9534 12.272C29.1534 12.4361 29.2096 12.6579 29.2378 12.8137C29.2628 12.9693 29.2971 13.324 29.269 13.6009C28.969 16.7634 27.6659 24.4378 27.0034 27.98C26.7253 29.4787 26.1721 29.9812 25.6378 30.0303C24.4753 30.1371 23.594 29.2628 22.469 28.5256C20.7096 27.3715 19.7159 26.6534 18.0065 25.5275C16.0315 24.2262 17.3128 23.5109 18.4378 22.3421C18.7315 22.0362 23.8503 17.3815 23.9471 16.9593C23.9596 16.9065 23.9721 16.7096 23.8534 16.6059C23.7378 16.5018 23.5659 16.5375 23.4409 16.5656C23.2628 16.6056 20.4534 18.4643 15.0034 22.1415C14.2065 22.6897 13.4846 22.9568 12.8346 22.9428C12.1221 22.9275 10.7471 22.539 9.72527 22.2071C8.47527 21.8 7.4784 21.5847 7.5659 20.8931C7.60965 20.5331 8.10652 20.1646 9.0534 19.7881Z" fill="white"/>
</g>
<defs>
<linearGradient id="paint0_linear_1_5040" x1="2000" y1="0" x2="2000" y2="4000" gradientUnits="userSpaceOnUse">
<stop stop-color="#2AABEE"/>
<stop offset="1" stop-color="#229ED9"/>
</linearGradient>
<clipPath id="clip0_1_5040">
<rect width="40" height="40" fill="white"/>
</clipPath>
</defs>
</svg>
