<svg width="40" height="40" viewBox="0 0 40 40" fill="none" xmlns="http://www.w3.org/2000/svg">
<g clip-path="url(#clip0_1_5036)">
<path d="M0.85332 19.7579C0.852383 23.1187 1.73738 26.4002 3.4202 29.2926L0.692383 39.1751L10.8849 36.5233C13.704 38.0461 16.8626 38.844 20.0724 38.8442H20.0808C30.6769 38.8442 39.3024 30.2887 39.3069 19.7729C39.3089 14.6773 37.3108 9.88564 33.6805 6.28068C30.0508 2.67603 25.2235 0.689826 20.08 0.6875C9.4827 0.6875 0.857852 9.24254 0.853477 19.7579" fill="url(#paint0_linear_1_5036)"/>
<path d="M0.167188 19.7544C0.166094 23.2361 1.08281 26.635 2.82562 29.631L0 39.8678L10.558 37.1209C13.467 38.6947 16.7423 39.5245 20.0752 39.5257H20.0837C31.06 39.5257 39.9953 30.6625 40 19.7702C40.0019 14.4915 37.9319 9.5276 34.1719 5.79349C30.4114 2.05984 25.4114 0.00217054 20.0837 0C9.10562 0 0.171563 8.86202 0.167188 19.7544ZM6.45484 29.115L6.06062 28.4941C4.40344 25.8795 3.52875 22.8581 3.53 19.7557C3.53344 10.7022 10.9591 3.33643 20.09 3.33643C24.5119 3.33829 28.6675 5.04868 31.7931 8.15194C34.9186 11.2555 36.6384 15.3811 36.6373 19.769C36.6333 28.8225 29.2075 36.1891 20.0837 36.1891H20.0772C17.1064 36.1876 14.1928 35.396 11.6519 33.9L11.0472 33.5442L4.78188 35.1741L6.45484 29.115Z" fill="url(#paint1_linear_1_5036)"/>
<path d="M15.1061 11.4975C14.7332 10.6753 14.3409 10.6587 13.9864 10.6443C13.6961 10.6319 13.3642 10.6328 13.0326 10.6328C12.7007 10.6328 12.1615 10.7567 11.7057 11.2505C11.2495 11.7448 9.96387 12.9392 9.96387 15.3685C9.96387 17.7979 11.7471 20.1457 11.9957 20.4755C12.2446 20.8046 15.4384 25.9494 20.4965 27.9286C24.7003 29.5734 25.5557 29.2463 26.4681 29.1638C27.3806 29.0817 29.4125 27.9697 29.827 26.8167C30.2418 25.6638 30.2418 24.6756 30.1175 24.4691C29.9931 24.2634 29.6612 24.1398 29.1636 23.893C28.6657 23.646 26.2192 22.4514 25.7631 22.2866C25.3068 22.122 24.9751 22.0398 24.6432 22.5342C24.3114 23.0279 23.3584 24.1398 23.0679 24.4691C22.7778 24.7992 22.4873 24.8403 21.9898 24.5933C21.4918 24.3455 19.8892 23.8248 17.9878 22.1427C16.5084 20.8339 15.5096 19.2176 15.2193 18.7232C14.929 18.2296 15.1882 17.962 15.4378 17.7159C15.6614 17.4947 15.9356 17.1393 16.1846 16.8511C16.4328 16.5628 16.5156 16.357 16.6815 16.0277C16.8476 15.6981 16.7645 15.4097 16.6403 15.1628C16.5156 14.9158 15.5486 12.4738 15.1061 11.4975Z" fill="white"/>
</g>
<defs>
<linearGradient id="paint0_linear_1_5036" x1="1931.42" y1="3849.45" x2="1931.42" y2="0.6875" gradientUnits="userSpaceOnUse">
<stop stop-color="#1FAF38"/>
<stop offset="1" stop-color="#60D669"/>
</linearGradient>
<linearGradient id="paint1_linear_1_5036" x1="2000" y1="3986.78" x2="2000" y2="0" gradientUnits="userSpaceOnUse">
<stop stop-color="#F9F9F9"/>
<stop offset="1" stop-color="white"/>
</linearGradient>
<clipPath id="clip0_1_5036">
<rect width="40" height="40" fill="white"/>
</clipPath>
</defs>
</svg>
