<svg width="50" height="50" viewBox="0 0 50 50" fill="none" xmlns="http://www.w3.org/2000/svg">
<path d="M22.4767 43.6765C22.3553 43.6766 22.2352 43.6528 22.1231 43.6064C22.011 43.56 21.9091 43.4918 21.8234 43.4059C21.4627 43.0452 21.4627 42.4603 21.8234 42.0995L23.0097 40.9131C23.8023 40.1206 23.8023 38.8309 23.0097 38.0384C22.2171 37.2458 20.9276 37.2459 20.1351 38.0384L19.2001 38.9733C17.7582 40.4152 15.412 40.4152 13.9701 38.9733C12.5282 37.5314 12.5282 35.1852 13.9701 33.7433L18.2202 29.4932C18.581 29.1325 19.1659 29.1325 19.5267 29.4932C19.8875 29.8539 19.8875 30.4388 19.5267 30.7997L15.2766 35.0498C14.5551 35.7713 14.5551 36.9454 15.2766 37.6669C15.9981 38.3884 17.1722 38.3883 17.8938 37.6669L18.8287 36.732C19.5617 35.9991 20.5361 35.5955 21.5726 35.5955C22.6091 35.5955 23.5835 35.9991 24.3164 36.732C25.8293 38.245 25.8293 40.7066 24.3164 42.2196L23.1301 43.4059C23.0443 43.4918 22.9425 43.56 22.8304 43.6064C22.7182 43.6528 22.598 43.6766 22.4767 43.6765Z" fill="#597B91"/>
<path d="M21.6831 32.1374L18.5102 33.0877C16.8354 33.5892 15.2744 32.0282 15.776 30.3535L16.7262 27.1806C17.0254 26.1815 17.5186 25.2513 18.1776 24.4431L25.0515 16.013C25.8736 15.0048 27.387 14.9281 28.3069 15.8479L33.0157 20.5568C33.9356 21.4767 33.8589 22.9901 32.8506 23.8122L24.4206 30.686C23.6123 31.3451 22.6821 31.8383 21.6831 32.1374Z" fill="#445056"/>
<path d="M35.0225 21.2882C39.1361 21.2882 42.4708 17.9535 42.4708 13.8399C42.4708 9.72632 39.1361 6.3916 35.0225 6.3916C30.9089 6.3916 27.5742 9.72632 27.5742 13.8399C27.5742 17.9535 30.9089 21.2882 35.0225 21.2882Z" fill="#B9C5C6"/>
<path d="M39.3054 19.6601C33.9328 19.2122 29.6498 14.9293 29.202 9.5567C29.1543 8.98547 29.3649 8.42252 29.7703 8.01717L30.3464 7.44104C30.7801 7.00734 31.5251 7.25299 31.6115 7.8602C32.3023 12.7175 36.1446 16.5599 41.002 17.2507C41.6092 17.3371 41.8548 18.0821 41.4211 18.5158L40.845 19.0919C40.4396 19.4971 39.8767 19.7078 39.3054 19.6601Z" fill="#96A9B2"/>
<path d="M18.544 19.977C18.544 19.9836 18.5432 19.99 18.5431 19.9965C18.5433 20.0095 18.544 20.0225 18.544 20.0355C18.544 21.3185 17.504 22.3586 16.221 22.3586C14.938 22.3586 13.8979 21.3186 13.8979 20.0355C13.8979 18.7526 14.9379 17.7125 16.221 17.7125C16.5627 17.7125 16.8868 17.7869 17.179 17.9193V13.0212L10.6675 16.616V24.614C10.6675 24.6429 10.6651 24.6696 10.6616 24.6953C10.6187 25.9405 9.59637 26.9371 8.34065 26.9371C7.05769 26.9371 6.01758 25.8971 6.01758 24.614C6.01758 23.331 7.05761 22.291 8.34065 22.291C8.68382 22.291 9.00931 22.366 9.30244 22.4995V13.3289C9.30243 13.2068 9.33514 13.087 9.39717 12.9819C9.45919 12.8768 9.54825 12.7903 9.65509 12.7313L17.5316 8.38294C17.6355 8.32553 17.7526 8.29623 17.8713 8.29792C17.9901 8.29961 18.1063 8.33224 18.2085 8.39259C18.3108 8.45293 18.3955 8.5389 18.4543 8.64201C18.5132 8.74511 18.5441 8.86179 18.5441 8.98051V19.977H18.544ZM40.9446 26.6425L37.682 28.4437C37.5752 28.5027 37.4861 28.5892 37.4241 28.6943C37.3621 28.7994 37.3294 28.9192 37.3294 29.0413V38.212C37.0275 38.0743 36.6994 38.0032 36.3676 38.0035C35.0846 38.0035 34.0445 39.0435 34.0445 40.3265C34.0445 41.6096 35.0846 42.6496 36.3676 42.6496C37.6233 42.6496 38.6457 41.6531 38.6886 40.4078C38.692 40.3821 38.6944 40.3555 38.6944 40.3265V32.5981C38.6944 32.5164 38.7163 32.4362 38.7578 32.3659C38.7994 32.2955 38.859 32.2376 38.9304 32.1981L41.3862 30.8424C41.4577 30.8029 41.5173 30.7449 41.5588 30.6746C41.6003 30.6043 41.6222 30.5241 41.6222 30.4424V27.0424C41.6223 26.6947 41.2492 26.4744 40.9446 26.6425Z" fill="#00D1AE"/>
<path d="M24.6699 26.0406C24.4272 26.0409 24.1869 25.9932 23.9627 25.9004C23.7384 25.8075 23.5348 25.6713 23.3634 25.4995C22.6419 24.7779 22.6419 23.6081 23.3634 22.8866L25.4877 20.7623C26.2093 20.0409 27.3791 20.0408 28.1006 20.7623C28.822 21.4838 28.822 22.6537 28.1006 23.3752L25.9762 25.4995C25.8049 25.6713 25.6012 25.8075 25.3771 25.9004C25.1529 25.9932 24.9126 26.0409 24.6699 26.0406Z" fill="#597B91"/>
<path d="M35.3511 9.09443C36.6323 9.09443 37.671 8.66285 37.671 8.13047C37.671 7.59808 36.6323 7.1665 35.3511 7.1665C34.0699 7.1665 33.0312 7.59808 33.0312 8.13047C33.0312 8.66285 34.0699 9.09443 35.3511 9.09443Z" fill="#DCE2E2"/>
</svg>
