<svg width="96" height="96" viewBox="0 0 96 96" fill="none" xmlns="http://www.w3.org/2000/svg">
<path d="M56.016 40.9807C55.6357 40.9782 55.2699 41.1261 54.9983 41.3923C54.7267 41.6585 54.5715 42.0213 54.5664 42.4015V53.0191C54.5715 53.4002 54.7274 53.7637 55 54.0301C55.2726 54.2964 55.6397 54.4438 56.0208 54.4399H88.0032C88.3843 54.4438 88.7514 54.2964 89.024 54.0301C89.2966 53.7637 89.4525 53.4002 89.4576 53.0191V42.4015C89.4525 42.0204 89.2966 41.6569 89.024 41.3906C88.7514 41.1243 88.3843 40.9769 88.0032 40.9807H56.016ZM75.6288 7.20793C80.0544 7.41913 83.2368 8.29272 85.2528 10.1455C87.2448 11.9791 88.2672 14.6335 88.4688 18.1471V28.2127C88.4587 29.0699 88.1087 29.8881 87.4958 30.4875C86.8829 31.0869 86.0572 31.4185 85.2 31.4095C84.7751 31.4146 84.3534 31.3359 83.959 31.178C83.5645 31.0201 83.205 30.786 82.9011 30.4892C82.5971 30.1923 82.3545 29.8385 82.1873 29.4479C82.0201 29.0573 81.9314 28.6376 81.9264 28.2127L81.9312 18.3295C81.8256 16.5055 81.3888 15.3727 80.7648 14.7967C80.16 14.2399 78.3168 13.7407 75.4704 13.5967H12.7056C10.128 13.6927 8.4528 14.1823 7.6416 14.8783C7.0176 15.4111 6.5472 16.8799 6.5424 19.4191L6.528 75.9151C6.768 78.3823 7.3104 80.0287 8.0064 80.8495C8.5344 81.4735 10.1712 82.0975 12.5808 82.4047H75.5376C78.4848 82.4623 80.2224 82.0207 80.808 81.4303C81.456 80.7727 81.9264 79.0447 81.9264 76.2175V66.4015C81.9264 64.6399 83.3904 63.2047 85.2 63.2047C87.0048 63.2047 88.4688 64.6399 88.4688 66.4015V76.2175C88.4688 80.5375 87.5856 83.7679 85.5168 85.8655C83.3856 88.0255 79.9968 88.8895 75.4704 88.7935L12.192 88.7791C7.8864 88.2799 4.8 87.0991 2.9616 84.9247C1.296 82.9567 0.3696 80.1487 0 76.2223V19.4143C0.0096 15.2095 1.0176 12.0463 3.3312 10.0687C5.4528 8.24472 8.5152 7.35673 12.5808 7.20312L75.6288 7.20793ZM88.0032 34.5871C92.4192 34.5871 96 38.0863 96 42.4015V53.0191C96 57.3343 92.4192 60.8335 88.0032 60.8335H56.0208C51.6048 60.8335 48.024 57.3295 48.024 53.0191V42.4015C48.024 38.0863 51.6048 34.5871 56.0208 34.5871H88.0032ZM64.0176 43.8991C61.8096 43.8991 60.0192 45.6271 60.0192 47.7535C60.0192 49.8799 61.8096 51.6079 64.0176 51.6079C66.2256 51.6079 68.016 49.8799 68.016 47.7535C68.016 45.6271 66.2256 43.8943 64.0176 43.8943" fill="#F7CE54"/>
</svg>
