<svg width="96" height="96" viewBox="0 0 96 96" fill="none" xmlns="http://www.w3.org/2000/svg">
<path d="M71.3603 38.384L77.0007 38.0246C77.0102 38.0238 77.0205 38.0231 77.0308 38.0224C81.0503 37.6813 84.6582 35.5637 86.9302 32.2109L91.3892 25.632C95.2703 19.9045 96.774 12.9868 95.6219 6.15375C95.3956 4.81174 94.7129 3.57506 93.7007 2.67278C92.6878 1.76976 91.3855 1.23649 90.0335 1.17167C83.1472 0.840224 76.5005 3.17143 71.312 7.73293L65.3515 12.9735C62.3142 15.6436 60.656 19.4994 60.801 23.5542C60.8017 23.5638 60.8017 23.5741 60.8024 23.5844L61.124 29.2581C61.2492 31.47 60.4428 33.6524 58.9157 35.2419L12.3497 83.3494C11.1031 84.6568 10.4593 86.4503 10.5376 88.3999C10.6241 90.5463 11.6033 92.6543 13.1575 94.0398C14.5616 95.2912 16.4915 96.0042 18.4207 96.0042C18.6273 96.0042 18.8338 95.9961 19.0396 95.9791C20.974 95.8237 22.6681 94.9663 23.815 93.5566L65.7148 41.3096C67.1042 39.5905 69.1623 38.524 71.3603 38.384ZM63.478 39.4889L21.5819 91.7314C20.9417 92.518 19.9574 93.0027 18.8104 93.0948C17.4459 93.2045 16.0469 92.7478 15.067 91.8743C14.087 91 13.4688 89.658 13.4139 88.2828C13.367 87.1272 13.7266 86.0864 14.4195 85.3602L60.9819 37.2564C63.0693 35.0842 64.1679 32.1093 63.998 29.0938L63.6765 23.4349C63.5673 20.261 64.8674 17.2434 67.2456 15.1523L73.206 9.91166C77.832 5.84513 83.7603 3.76878 89.8965 4.06193C90.5953 4.09581 91.2676 4.37128 91.7913 4.83826C92.315 5.3045 92.6673 5.94383 92.7845 6.63693C93.8113 12.729 92.471 18.8955 89.011 24.0013L84.552 30.5809C82.773 33.206 79.9495 34.8655 76.803 35.1373L71.178 35.4952C68.1809 35.6867 65.3757 37.1407 63.478 39.4889Z" fill="#F7CE54"/>
<path d="M93.341 82.9757L62.1185 54.3775C61.5311 53.8391 60.6215 53.8818 60.0853 54.4725C59.5507 55.0632 59.5932 55.9788 60.1806 56.5172L91.3949 85.1088C92.1376 85.7989 92.5587 86.8161 92.5814 87.9725C92.6085 89.3484 92.0717 90.725 91.1452 91.6568C90.2194 92.5878 88.8527 93.1291 87.4816 93.1012C86.3317 93.0783 85.3202 92.6548 84.6413 91.916L56.8195 61.1987C56.2841 60.6073 55.3737 60.5653 54.7863 61.103C54.1989 61.6414 54.1564 62.5569 54.6918 63.1477L82.5202 93.8723C83.7433 95.2025 85.485 95.9568 87.4252 95.9951C87.4757 95.9958 87.5255 95.9966 87.5761 95.9966C89.6613 95.9966 91.7465 95.1458 93.1798 93.7037C94.6491 92.2261 95.5009 90.0629 95.4584 87.9158C95.4203 85.9647 94.671 84.2131 93.341 82.9757Z" fill="#F7CE54"/>
<path d="M17.3642 38.1051C19.746 40.3119 22.8405 41.5699 26.0778 41.648C26.088 41.6487 26.0983 41.6487 26.1078 41.6487L31.7592 41.6664C33.9623 41.673 36.0797 42.6136 37.5658 44.2421L40.0553 46.9902C40.3395 47.304 40.7284 47.4631 41.1195 47.4631C41.4652 47.4631 41.8124 47.3386 42.0878 47.086C42.6759 46.5475 42.7184 45.632 42.183 45.0413L39.6898 42.2895C37.6596 40.0636 34.7724 38.782 31.7687 38.7717L26.1327 38.754C23.6286 38.69 21.2343 37.7258 19.379 36.0369L3.00135 16.4578C2.83436 16.2574 2.84681 15.9672 3.03065 15.7824C3.15663 15.6549 3.30458 15.6365 3.38148 15.6365C3.45839 15.6365 3.60634 15.6549 3.73304 15.7824L18.6408 30.7749C20.1144 32.2569 22.5124 32.2569 23.986 30.7742L25.7379 29.0131V29.0124L28.8485 25.8842C28.8485 25.8842 28.8493 25.8842 28.8493 25.8835L28.85 25.8827L30.6012 24.1216C32.0749 22.6397 32.0749 20.2282 30.6012 18.7463L15.6935 3.7544C15.5001 3.55995 15.5001 3.2425 15.6935 3.04805C15.8773 2.86317 16.1659 2.85065 16.3651 3.01858L35.8344 19.4894C37.5146 21.3544 38.4733 23.7629 38.537 26.2805L38.5539 31.949C38.5641 34.9689 39.8393 37.8724 42.0556 39.9185L44.7231 42.3617C45.3112 42.9001 46.2209 42.8574 46.7563 42.2667C47.2909 41.6752 47.2484 40.7604 46.661 40.222L43.998 37.7825C42.3742 36.2844 41.4396 34.1543 41.4323 31.9394L41.4147 26.2562C41.4147 26.2459 41.4147 26.2355 41.414 26.2252C41.3363 22.9697 40.0854 19.8577 37.891 17.4624C37.85 17.4175 37.8061 17.3748 37.7592 17.335L18.2174 0.803761C16.8668 -0.339373 14.9069 -0.253932 13.6588 1.00116C12.3427 2.32475 12.3427 4.4777 13.6588 5.80055L28.5666 20.7931C28.9181 21.1467 28.9181 21.7219 28.5666 22.0755L27.8319 22.8135L11.2169 6.10549C10.6552 5.53981 9.74403 5.53981 9.18227 6.10549C8.6205 6.67042 8.6205 7.5867 9.18227 8.15164L25.7973 24.8604L24.7206 25.9424L8.10561 9.23437C7.54384 8.66944 6.6327 8.66944 6.07094 9.23437C5.50844 9.79931 5.50844 10.7156 6.07094 11.2805L22.6852 27.9893L21.9513 28.728C21.5998 29.0816 21.0277 29.0816 20.6762 28.728L5.76771 13.7362C5.13051 13.0954 4.28309 12.7419 3.38148 12.7419C2.47987 12.7419 1.63246 13.0954 0.99525 13.7362C-0.252797 14.9913 -0.337026 16.9623 0.798961 18.3213L17.2382 37.9726C17.277 38.0197 17.3195 38.0639 17.3642 38.1051Z" fill="#F7CE54"/>
</svg>
