<svg width="20" height="20" viewBox="0 0 20 20" fill="none" xmlns="http://www.w3.org/2000/svg">
<path fill-rule="evenodd" clip-rule="evenodd" d="M13.8916 10.9414C15.0333 11.7164 15.8333 12.7664 15.8333 14.1664V16.6664H18.3333C18.7916 16.6664 19.1666 16.2914 19.1666 15.8331V14.1664C19.1666 12.3497 16.1916 11.2747 13.8916 10.9414Z" fill="black"/>
<path d="M7.50033 10.0026C9.34127 10.0026 10.8337 8.51022 10.8337 6.66927C10.8337 4.82832 9.34127 3.33594 7.50033 3.33594C5.65938 3.33594 4.16699 4.82832 4.16699 6.66927C4.16699 8.51022 5.65938 10.0026 7.50033 10.0026Z" fill="black"/>
<path fill-rule="evenodd" clip-rule="evenodd" d="M12.4997 10.0026C14.3413 10.0026 15.833 8.51094 15.833 6.66927C15.833 4.8276 14.3413 3.33594 12.4997 3.33594C12.108 3.33594 11.7413 3.41927 11.3913 3.53594C12.1084 4.42278 12.4996 5.52877 12.4996 6.66927C12.4996 7.80977 12.1084 8.91576 11.3913 9.8026C11.7413 9.91927 12.108 10.0026 12.4997 10.0026ZM7.49967 10.8359C5.27467 10.8359 0.833008 11.9526 0.833008 14.1693V15.8359C0.833008 16.2943 1.20801 16.6693 1.66634 16.6693H13.333C13.7913 16.6693 14.1663 16.2943 14.1663 15.8359V14.1693C14.1663 11.9526 9.72467 10.8359 7.49967 10.8359Z" fill="black"/>
</svg>
