<svg width="210" height="56" viewBox="0 0 210 56" fill="none" xmlns="http://www.w3.org/2000/svg">
<g clip-path="url(#clip0_1_5237)">
<path d="M167.379 31.2015L168.551 30.0329L169.724 28.8643C170.322 28.2332 170.978 27.5905 171.694 26.901C172.409 26.2115 173.054 25.6155 173.652 25.0663C174.25 24.517 174.637 24.2599 174.824 24.2599C175.249 24.3368 175.636 24.5503 175.926 24.8676C176.396 25.2766 176.7 25.5571 176.865 25.7207C177.2 26.0701 177.517 26.4367 177.814 26.8192C178.213 27.3451 178.365 27.7307 178.26 27.9878L178.096 28.1514C178.038 28.363 177.91 28.5486 177.732 28.6773C177.54 28.8095 177.359 28.958 177.193 29.1214L174.742 31.5754L170.814 36.2499L168.844 38.4469C169.649 38.3035 170.436 38.0723 171.189 37.7574C172.057 37.3952 172.948 37.0212 173.851 36.5888C174.754 36.1564 175.61 35.7474 176.419 35.28C177.228 34.8125 177.92 34.4269 178.471 34.1113C179.022 33.7958 179.421 33.5972 179.538 33.7023L180.429 34.5204C180.398 34.691 180.343 34.8564 180.265 35.0112L179.538 35.502C178.823 36.0396 177.896 36.6706 176.747 37.5003C175.588 38.2964 174.386 39.0298 173.148 39.6973C171.951 40.3542 170.69 40.8868 169.384 41.2866C168.36 41.6676 167.237 41.6964 166.195 41.3684C165.808 41.3684 165.397 41.0763 164.963 40.4686C164.649 40.063 164.374 39.6287 164.143 39.1714C163.89 38.771 163.674 38.3486 163.498 37.9093C163.298 37.4839 163.187 37.023 163.169 36.5537C163.331 36.0603 163.613 35.6145 163.99 35.2566C164.26 34.8709 164.553 34.497 164.881 34.088C164.493 34.0299 164.101 34.0025 163.709 34.0062C162.337 34.0062 160.977 34.0062 159.617 34.088L153.308 41.2633C153.144 41.4269 152.957 41.4152 152.734 41.2633C152.489 41.044 152.258 40.8099 152.042 40.5621C151.797 40.299 151.577 40.0133 151.385 39.709C151.275 39.5263 151.154 39.3507 151.022 39.1831C150.858 38.8559 150.647 38.4352 150.401 37.921C150.175 37.5066 150.077 37.035 150.119 36.5654C150.261 36.082 150.514 35.638 150.858 35.2683C151.35 34.6138 151.901 33.9361 152.535 33.2232C153.168 32.5103 153.766 31.8676 154.329 31.2716L155.501 30.103L156.674 28.9344C157.283 28.3033 157.928 27.6606 158.643 26.9711C159.359 26.2816 160.004 25.6856 160.602 25.1364C161.2 24.5871 161.586 24.33 161.774 24.33C162.199 24.4044 162.587 24.6183 162.876 24.9377C163.345 25.3467 163.685 25.6272 163.908 25.7908L164.635 26.6906C164.89 26.9763 165.086 27.3101 165.21 27.6723L162.138 30.9911H163.134H164.975C165.597 30.9911 166.265 31.0613 166.98 31.1197L167.379 31.2015ZM137.831 38.5404C137.292 38.8676 136.659 39.2416 135.873 39.709C135.118 40.1489 134.334 40.5393 133.528 40.8776C132.738 41.1971 131.917 41.4322 131.077 41.5788C130.339 41.7166 129.578 41.6724 128.861 41.4502C128.486 41.4502 128.076 41.1581 127.689 40.5504C127.332 40.1297 127.028 39.6665 126.786 39.1714C126.529 38.7716 126.309 38.3491 126.129 37.9093C125.924 37.4886 125.839 37.0196 125.883 36.5537C126.025 36.0703 126.278 35.6263 126.622 35.2566C127.114 34.6022 127.665 33.9244 128.298 33.2115C128.932 32.4987 129.53 31.8559 130.104 31.2599C130.679 30.6639 131.066 30.2549 131.277 30.0913L132.449 28.9227C133.059 28.2916 133.704 27.6489 134.419 26.9594C135.134 26.2699 135.779 25.674 136.377 25.1247C136.975 24.5755 137.362 24.3184 137.55 24.3184C137.975 24.3927 138.363 24.6066 138.652 24.926C139.121 25.335 139.437 25.6155 139.602 25.7791C139.766 25.9427 140.129 26.3634 140.54 26.8776C140.95 27.3918 141.102 27.7891 140.985 28.0462V28.2098C140.873 28.4272 140.702 28.6092 140.493 28.7357C140.289 28.8618 140.1 29.0108 139.93 29.1798C139.484 29.6239 139.074 30.0212 138.757 30.3484C138.441 30.6756 137.995 31.1314 137.585 31.517L133.575 36.1915L131.617 38.3885C133.378 38.1804 135.046 37.4885 136.436 36.3901C137.806 35.275 139.091 34.0602 140.282 32.7558C140.997 31.891 141.841 30.9678 142.826 29.9861L143.999 28.8175C144.597 28.1865 145.171 27.5437 145.921 26.8542C146.672 26.1648 147.235 25.5688 147.844 25.0195C148.454 24.4703 148.818 24.2132 149.017 24.2132C149.446 24.2868 149.838 24.5006 150.131 24.8209C150.588 25.2299 150.905 25.5103 151.069 25.6739C151.233 25.8375 151.514 26.2583 151.925 26.7724C152.335 27.2866 152.488 27.684 152.37 27.9411V28.1047C152.265 28.3123 152.113 28.4925 151.925 28.6305C151.739 28.7658 151.562 28.9142 151.397 29.0746L150.166 30.2432L148.994 31.4118L145.148 36.0863L143.189 38.2833C143.995 38.1423 144.781 37.911 145.535 37.5938C146.414 37.2315 147.282 36.8576 148.161 36.4252C149.04 35.9928 149.861 35.5838 150.647 35.1163C151.432 34.6489 152.112 34.2633 152.652 33.9477C153.191 33.6322 153.695 33.4335 153.824 33.5387C153.953 33.6439 154.235 33.9244 154.727 34.3567C154.691 34.5259 154.636 34.6905 154.563 34.8476L153.824 35.3384C153.121 35.8759 152.206 36.5421 151.081 37.3367C149.952 38.1366 148.777 38.8702 147.563 39.5337C146.366 40.1906 145.105 40.7232 143.799 41.123C142.771 41.504 141.645 41.5328 140.598 41.2048C140.335 41.1848 140.088 41.0682 139.906 40.8776C139.644 40.6511 139.411 40.3919 139.215 40.1063C138.992 39.8025 138.793 39.4987 138.593 39.1714C138.394 38.8442 137.937 38.7624 137.831 38.5404ZM126.375 28.4319C126.454 28.8797 126.367 29.3409 126.129 29.729C125.761 30.6259 125.309 31.4866 124.781 32.3C124.206 33.1998 123.608 34.0529 122.975 34.8709C122.555 35.4599 122.076 36.0043 121.545 36.4953C122.129 36.4511 122.706 36.3454 123.268 36.1798C123.805 36.015 124.324 35.7957 124.816 35.5254C125.262 35.2449 125.684 35.0112 126.082 34.7891L127.255 34.1347C127.853 33.7608 128.205 33.6205 128.31 33.7257C128.416 33.8309 128.72 34.1113 129.213 34.5437C129.318 34.6489 129.213 34.8125 129.049 35.0345L128.31 35.5254C127.712 36.0162 127.138 36.5187 126.387 37.0329C125.724 37.5361 125.013 37.9745 124.265 38.3417C123.525 38.6953 122.734 38.9281 121.92 39.0312C121.08 39.1373 120.228 38.9951 119.469 38.6222C118.977 39.0585 118.391 39.5493 117.71 40.0947C117.06 40.6101 116.342 41.0348 115.576 41.3568C114.881 41.6493 114.119 41.7464 113.372 41.6372C112.988 41.5469 112.626 41.3776 112.311 41.1401C111.997 40.9027 111.735 40.6023 111.543 40.2583L109.573 37.3952C109.329 37.0495 109.163 36.6555 109.086 36.24C109.009 35.8245 109.023 35.3974 109.128 34.9878C109.329 34.0603 109.673 33.1694 110.148 32.3467C110.638 31.4731 111.215 30.6509 111.871 29.8926C112.399 29.2569 112.971 28.6594 113.583 28.1047C114.285 27.3988 115.025 26.7317 115.799 26.1063C116.552 25.4845 117.374 24.9512 118.25 24.517C118.848 24.2365 119.504 23.9678 120.208 23.699C120.711 23.534 121.25 23.5057 121.767 23.6172C121.392 22.6356 121.029 21.6305 120.7 20.5905C120.208 19.0245 119.727 17.4469 119.235 15.916L117.699 11.1247C117.593 10.9611 117.699 10.7975 117.863 10.6339C118.519 10.5287 119.117 10.4469 119.669 10.3885C120.22 10.33 120.841 10.295 121.709 10.2716C122.576 10.2482 123.397 10.2716 124.323 10.2716C125.25 10.2716 126.117 10.2716 126.903 10.2716C127.689 10.2716 128.38 10.2716 128.955 10.3885C129.275 10.3906 129.592 10.4459 129.893 10.5521C130.063 10.7605 130.201 10.9928 130.303 11.2416C130.476 11.6216 130.625 12.0119 130.749 12.4102C130.89 12.8192 131.007 13.2165 131.124 13.5788C131.209 13.8445 131.264 14.1189 131.288 14.3968V14.6305C130.664 14.527 130.033 14.4606 129.401 14.4319C128.803 14.4319 128.228 14.3618 127.607 14.3033L124.089 14.3851L121.38 14.4669C121.932 16.103 122.553 17.704 123.104 19.2816C124.089 22.0512 125.062 24.8793 126.047 27.7658C126.047 27.7658 126.153 27.9527 126.375 28.1748V28.4319ZM117.699 37.3134C117.065 36.5601 116.716 35.6088 116.714 34.6255C116.714 33.6604 116.852 32.7003 117.124 31.7741C116.585 32.5337 116.069 33.305 115.576 34.1113C115.095 34.8655 114.657 35.6457 114.263 36.4486C114.126 36.7417 114.004 37.0421 113.9 37.3484C113.825 37.4986 113.804 37.6696 113.841 37.8333C113.877 37.9969 113.968 38.1432 114.099 38.2482C114.301 38.3871 114.535 38.4719 114.78 38.4944C115.024 38.517 115.27 38.4764 115.494 38.3768C115.945 38.2422 116.382 38.0621 116.796 37.8392C116.955 37.737 117.119 37.6434 117.288 37.5588C117.439 37.5018 117.578 37.4187 117.699 37.3134ZM119.176 35.9344C119.34 35.7708 119.633 35.4085 120.079 34.8709C120.524 34.3334 120.947 33.7023 121.38 33.0362C121.814 32.3701 122.236 31.6573 122.647 30.9561C122.996 30.3856 123.261 29.7676 123.432 29.1214C123.501 28.9225 123.514 28.709 123.47 28.5033C123.427 28.2977 123.329 28.1075 123.186 27.9527C122.905 27.7073 122.365 27.6957 121.545 27.9527C121.334 28.28 120.982 28.8058 120.525 29.5421C120.077 30.2916 119.685 31.0728 119.352 31.8793C119.013 32.6224 118.78 33.4091 118.66 34.2165C118.599 34.5231 118.614 34.8399 118.704 35.1393C118.794 35.4387 118.956 35.7117 119.176 35.9344ZM92.6535 40.1765C91.7858 40.5504 90.8009 40.9361 89.7104 41.3451C88.6862 41.7261 87.5637 41.7549 86.5212 41.4269C86.1342 41.4269 85.7238 41.1347 85.3486 40.527C84.9734 39.9194 84.5748 39.4636 84.3871 39.1714C84.1995 38.8793 84.0237 38.4235 83.7774 37.9093C83.5518 37.4949 83.4539 37.0234 83.496 36.5537C83.647 36.0663 83.9123 35.6216 84.2699 35.2566C84.7858 34.6022 85.3604 33.9244 85.9935 33.2115C86.6267 32.4987 87.166 31.8559 87.7875 31.2599L88.96 30.0913L90.1325 28.9227C90.7305 28.2916 91.3872 27.6489 92.0907 26.9594L94.0605 25.1247C94.6585 24.5871 95.0454 24.3184 95.233 24.3184C95.6573 24.3952 96.0445 24.6087 96.3352 24.926C96.7925 25.335 97.1091 25.6155 97.2732 25.7791C97.5129 26.1693 97.7876 26.537 98.094 26.8776C98.5279 27.4035 98.692 27.7891 98.5865 28.0462V28.2098C98.4743 28.4272 98.3038 28.6092 98.094 28.7357C97.8864 28.8618 97.6937 29.0108 97.5195 29.1798C97.0856 29.6239 96.687 30.0212 96.347 30.3484C96.0069 30.6756 95.5965 31.1314 95.1744 31.517L91.2465 36.1915L89.2649 38.4586C90.6922 38.1642 92.0702 37.6684 93.357 36.9861C94.6702 36.3901 95.8193 35.8175 96.7925 35.28C97.9416 33.9244 99.0359 32.5376 100.076 31.1197C102.03 28.4007 103.773 26.0635 105.305 24.108C105.528 23.886 105.88 23.9327 106.372 24.2249C106.92 24.5759 107.418 25.0006 107.849 25.487C108.299 25.9947 108.721 26.5252 109.116 27.0763C109.468 27.6022 109.561 27.9411 109.397 28.1047C106.724 31.5716 104.078 34.9839 101.459 38.3417C98.8074 41.7204 95.8177 44.8215 92.5362 47.5972C90.1961 49.6269 87.645 51.4015 84.9265 52.891C82.2158 54.3743 79.2877 55.4234 76.2498 55.9995C75.8392 55.6772 75.4931 55.2808 75.2297 54.8309C74.817 54.2253 74.4599 53.5838 74.1627 52.9144C73.8863 52.3102 73.7234 51.6606 73.682 50.9978C73.6361 50.7413 73.6909 50.477 73.8349 50.2596C73.9789 50.0421 74.2012 49.8881 74.4558 49.8292C74.7539 49.9531 75.0713 50.0243 75.3939 50.0396C75.8156 50.0629 76.2384 50.0629 76.6602 50.0396C77.1057 50.0396 77.5279 49.9694 77.9382 49.911C78.3486 49.8526 78.6535 49.8058 78.8763 49.7474C81.6542 49.1257 84.2381 47.8381 86.4039 45.9961C88.6285 44.2128 90.7174 42.2675 92.6535 40.1765ZM95.6083 12.1998C95.31 11.9668 94.9922 11.7596 94.6585 11.5805L93.6384 11.0546C92.6535 10.6222 91.6334 10.2132 90.5664 9.88597C89.4994 9.55875 88.4324 9.1848 87.3419 8.90433C82.4814 7.6883 77.4967 7.03347 72.486 6.95274C67.4756 6.83825 62.4625 6.97476 57.4659 7.36176C51.3569 7.79413 45.3029 8.80367 39.3855 10.3768C33.4547 11.9462 27.6533 13.966 22.032 16.4185C18.5145 17.9845 14.9969 19.7023 11.7255 21.5487L9.88464 22.7174C9.25148 23.103 8.64176 23.5003 8.04377 23.9444H7.96169L6.23808 21.4786C6.44443 21.2258 6.67624 20.9948 6.92987 20.7891C7.17487 20.5948 7.40969 20.3881 7.63338 20.1698C8.66521 19.3634 9.74394 18.5805 10.8578 17.8325L14.223 15.5888C16.6599 14.0487 19.2028 12.682 21.8327 11.4987C25.7174 9.63505 29.7067 7.99626 33.7808 6.59047C39.2093 4.6872 44.7754 3.19876 50.4307 2.13805C56.0936 1.0631 61.8262 0.391399 67.5848 0.128037C69.3788 0.069606 71.3369 0.0228607 73.4474 -0.000511582C75.558 -0.0238839 77.6568 -0.000511227 79.7908 0.209839C81.8905 0.370527 83.9804 0.639669 86.0521 1.01618C87.9889 1.37093 89.8915 1.89093 91.7389 2.57044C92.4429 2.864 93.1247 3.20768 93.7791 3.59882C94.4542 3.9837 95.0869 4.43804 95.6669 4.95442L96.1945 5.51535C96.3545 5.69713 96.5032 5.88835 96.6401 6.08797L100.896 14.093C99.2297 16.9235 97.0182 19.3977 94.3888 21.3734C91.6594 23.4668 88.7295 25.287 85.6418 26.8075C82.5168 28.3656 79.2747 29.6784 75.9449 30.734C72.615 31.7936 69.4882 32.6778 66.5647 33.3868C61.6505 34.5424 56.6803 35.4473 51.6736 36.098C46.6552 36.7368 41.6328 37.1965 36.6066 37.477C34.8712 37.5938 33.1476 37.6522 31.4592 37.6873C29.7707 37.7224 28.1057 37.6873 26.4642 37.5588H25.6434C25.1771 37.5589 24.7112 37.5316 24.2481 37.477C23.8108 37.4359 23.3762 37.3695 22.9466 37.2783C22.5597 37.1965 22.3486 37.103 22.29 36.9861L20.8126 33.3985C18.749 35.3033 16.697 37.2432 14.6803 39.2416L8.70039 45.1548L3.1426 51.4419H2.97844C2.96721 51.444 2.95563 51.4433 2.94471 51.44C2.93379 51.4366 2.92386 51.4306 2.91578 51.4225C2.90769 51.4145 2.9017 51.4046 2.89832 51.3937C2.89494 51.3828 2.89427 51.3713 2.89637 51.3601C2.53275 51.1652 2.22272 50.8843 1.99352 50.5421C1.65541 50.0961 1.34226 49.6318 1.0555 49.1514C0.758079 48.6755 0.510545 48.1703 0.316803 47.6439C0.150704 47.2779 0.0820525 46.8754 0.117473 46.4753C0.422155 45.8226 0.829903 45.2229 1.32518 44.699C2.2163 43.694 3.34193 42.4786 4.67861 41.0646C6.0153 39.6506 7.49268 38.1431 9.09905 36.5421C10.7054 34.9411 12.2297 33.4102 13.6836 31.9728L17.4475 28.2215C18.5027 27.162 19.1711 26.4959 19.4525 26.2232L25.831 20.0295L32.2096 13.8242C32.5776 13.4509 33.0322 13.1735 33.5332 13.0166C34.0341 12.8597 34.5661 12.828 35.0823 12.9244C35.4284 12.9703 35.7627 13.0813 36.0672 13.2516C36.1727 13.2516 36.3017 13.3334 36.4659 13.497C36.8828 13.5902 37.2798 13.7564 37.6384 13.9878C38.2364 14.315 38.8109 14.6773 39.4441 15.0863C39.9823 15.43 40.4885 15.8211 40.9567 16.2549C41.3671 16.6639 41.4843 16.921 41.3201 17.0262C38.5373 18.9895 35.8366 20.9605 33.218 22.9394C30.5993 24.9182 28.0354 26.9711 25.5262 29.098C29.4346 29.2148 33.3626 29.3122 37.3101 29.3901C41.2381 29.4719 45.2012 29.4603 49.1761 29.3901C53.3268 29.2811 57.5714 28.9694 61.9098 28.4552C66.1941 27.9488 70.4242 27.061 74.5496 25.8025C78.5962 24.5762 82.4724 22.8488 86.0873 20.6606C89.7507 18.4407 92.9771 15.5736 95.6083 12.1998Z" fill="white"/>
<path fill-rule="evenodd" clip-rule="evenodd" d="M202.261 15.1545C202.109 12.455 201.956 9.79055 201.816 7.11442C201.816 6.76384 201.816 6.41325 201.757 6.06267C201.807 5.60079 201.762 5.13364 201.625 4.68964C201.488 4.24565 201.262 3.8341 200.96 3.48003L206.635 6.35482L210.035 17.5852L193.151 34.6002L201.792 17.5735C202.042 17.2283 202.216 16.8344 202.303 16.4176C202.39 16.0008 202.388 15.5704 202.296 15.1545M199.799 5.1979L194.874 0.523438L188.777 3.36317L184.685 13.46L188.39 38.8657L200.303 15.9024L199.799 5.1979ZM183.067 11.9525C184.099 9.45165 185.107 6.98588 186.116 4.49673C186.256 4.16952 186.385 3.85399 186.514 3.52678C186.622 3.07243 186.819 2.64405 187.095 2.26678C187.371 1.88952 187.72 1.57095 188.121 1.32978L181.801 2.21793L174.965 11.7304L185.412 33.3264L182.809 14.43C182.669 14.023 182.62 13.5907 182.665 13.1629C182.709 12.7352 182.847 12.3222 183.067 11.9525Z" fill="#AE1708"/>
<path d="M174.086 50.7878V52.7043H171.483V50.7878H170.591V55.731H171.483V53.4873H174.086V55.731H174.953V50.7878H174.086ZM163.533 51.6759H163.638L164.588 54.0131H162.606L163.533 51.6759ZM163.134 50.7878L160.93 55.731H161.868L162.266 54.8195H164.916L165.327 55.731H166.276L164.084 50.7878H163.134ZM155.431 53.5924H153.895V51.5941H155.36C155.505 51.5907 155.648 51.6194 155.78 51.678C155.911 51.7366 156.029 51.8237 156.122 51.933C156.289 52.1141 156.378 52.3534 156.369 52.5991C156.351 52.8433 156.265 53.0778 156.122 53.2769C156.033 53.3751 155.925 53.4538 155.804 53.5081C155.683 53.5624 155.552 53.5911 155.419 53.5924H155.431ZM157.26 52.5991C157.272 52.1724 157.126 51.7562 156.849 51.4305C156.671 51.2201 156.448 51.0514 156.197 50.9363C155.945 50.8212 155.672 50.7625 155.395 50.7644H153.05V55.7076H153.953V54.3637H155.454C155.949 54.3679 156.427 54.1841 156.791 53.8495C157.105 53.5092 157.277 53.0618 157.271 52.5991H157.26ZM144.28 53.2652C144.274 52.8081 144.441 52.3656 144.749 52.0265C144.913 51.8586 145.109 51.7252 145.325 51.6341C145.542 51.543 145.774 51.4961 146.009 51.4961C146.244 51.4961 146.477 51.543 146.693 51.6341C146.91 51.7252 147.106 51.8586 147.27 52.0265C147.579 52.3692 147.747 52.816 147.739 53.2769C147.734 53.7089 147.571 54.1244 147.282 54.4455C147.118 54.6167 146.922 54.7529 146.704 54.846C146.486 54.9392 146.252 54.9872 146.015 54.9872C145.778 54.9872 145.544 54.9392 145.326 54.846C145.108 54.7529 144.912 54.6167 144.749 54.4455C144.448 54.1248 144.276 53.7044 144.268 53.2652H144.28ZM146.015 50.706C145.658 50.7007 145.304 50.7673 144.974 50.9018C144.643 51.0364 144.343 51.2361 144.092 51.4889C143.652 51.9674 143.408 52.5928 143.408 53.2418C143.408 53.8909 143.652 54.5163 144.092 54.9948C144.341 55.256 144.642 55.4633 144.974 55.6041C145.307 55.7448 145.665 55.8158 146.027 55.8128C146.381 55.8223 146.732 55.7598 147.061 55.6292C147.39 55.4986 147.688 55.3026 147.938 55.0532C148.396 54.571 148.644 53.9287 148.63 53.2652C148.642 52.923 148.582 52.582 148.455 52.2639C148.328 51.9458 148.136 51.6574 147.891 51.4169C147.647 51.1764 147.355 50.9891 147.034 50.8667C146.713 50.7443 146.37 50.6896 146.027 50.706H146.015ZM135.029 51.5824H136.869V55.731H137.737V51.5824H139.578V50.7878H134.993L135.029 51.5824ZM127.137 53.2535C127.136 52.7802 127.316 52.3242 127.642 51.9797C127.973 51.6634 128.414 51.4874 128.873 51.4889C129.426 51.4906 129.957 51.7088 130.35 52.0966L130.878 51.5006C130.615 51.2394 130.302 51.0343 129.957 50.8976C129.613 50.761 129.244 50.6958 128.873 50.706C128.173 50.6917 127.495 50.9519 126.985 51.4305C126.513 51.9199 126.252 52.5744 126.258 53.2535C126.253 53.594 126.316 53.932 126.445 54.2473C126.574 54.5626 126.766 54.8487 127.008 55.0883C127.256 55.3256 127.548 55.5119 127.868 55.6362C128.188 55.7606 128.529 55.8206 128.873 55.8128C129.245 55.8264 129.616 55.7616 129.962 55.6227C130.307 55.4838 130.619 55.2738 130.878 55.0065L130.35 54.4221C129.952 54.8015 129.424 55.0147 128.873 55.0181C128.639 55.0179 128.408 54.9713 128.192 54.8811C127.977 54.7908 127.782 54.6586 127.618 54.4923C127.457 54.3293 127.33 54.1356 127.246 53.9228C127.161 53.71 127.12 53.4824 127.126 53.2535H127.137ZM118.261 55.731H122.225V54.9247H119.153V53.5457H121.791V52.7393H119.153V51.5707H122.096V50.7644H118.25L118.261 55.731ZM112.059 53.5924H110.523V51.5941H111.988C112.133 51.5907 112.276 51.6194 112.408 51.678C112.54 51.7366 112.657 51.8237 112.751 51.933C112.917 52.1141 113.006 52.3534 112.997 52.5991C112.979 52.8433 112.894 53.0778 112.751 53.2769C112.661 53.374 112.552 53.452 112.431 53.5062C112.31 53.5604 112.18 53.5897 112.047 53.5924H112.059ZM113.888 52.5991C113.894 52.1734 113.749 51.7594 113.477 51.4305C113.297 51.2219 113.074 51.0545 112.823 50.9395C112.572 50.8246 112.3 50.7649 112.024 50.7644H109.62V55.7076H110.523V54.3637H112.024C112.515 54.3661 112.988 54.1823 113.349 53.8495C113.684 53.5177 113.877 53.0697 113.888 52.5991Z" fill="white"/>
</g>
<defs>
<clipPath id="clip0_1_5237">
<rect width="210" height="56" fill="white"/>
</clipPath>
</defs>
</svg>
