<svg width="32" height="32" viewBox="0 0 32 32" fill="none" xmlns="http://www.w3.org/2000/svg">
<path d="M8.6665 21.3865C9.83095 21.3865 10.9629 21.5199 12.0625 21.7865C13.1621 22.0532 14.2523 22.4887 15.3332 23.0932V10.0119C14.3705 9.32474 13.3101 8.80919 12.1518 8.46519C10.9918 8.12208 9.83006 7.95052 8.6665 7.95052C7.8665 7.95052 7.16606 7.99808 6.56517 8.09319C5.96428 8.1883 5.29717 8.36608 4.56384 8.62652C4.35939 8.69497 4.21406 8.79363 4.12784 8.92252C4.0425 9.05052 3.99984 9.19141 3.99984 9.34519V21.3652C3.99984 21.6052 4.08517 21.7803 4.25584 21.8905C4.4265 22.0007 4.6145 22.0141 4.81984 21.9305C5.30695 21.7661 5.87006 21.6341 6.50917 21.5345C7.14828 21.435 7.86739 21.3856 8.6665 21.3865ZM16.6665 23.0932C17.7474 22.4905 18.8376 22.055 19.9372 21.7865C21.0367 21.5181 22.1687 21.3847 23.3332 21.3865C24.1332 21.3865 24.8523 21.4359 25.4905 21.5345C26.1287 21.6332 26.6918 21.7647 27.1798 21.9292C27.3843 22.0145 27.5723 22.0016 27.7438 21.8905C27.9154 21.7794 28.0007 21.6043 27.9998 21.3652V9.34519C27.9998 9.19141 27.9572 9.05452 27.8718 8.93452C27.7865 8.81541 27.6412 8.71319 27.4358 8.62785C26.7025 8.36741 26.0354 8.18963 25.4345 8.09452C24.8336 7.99941 24.1332 7.95097 23.3332 7.94919C22.1687 7.94919 21.0074 8.12074 19.8492 8.46385C18.6901 8.80785 17.6292 9.32341 16.6665 10.0105V23.0932ZM15.9998 24.6092C15.7909 24.6092 15.5989 24.583 15.4238 24.5305C15.2487 24.4781 15.0816 24.4114 14.9225 24.3305C13.9536 23.8016 12.9447 23.4007 11.8958 23.1279C10.8469 22.855 9.7705 22.7194 8.6665 22.7212C7.97317 22.7212 7.29139 22.779 6.62117 22.8945C5.95184 23.011 5.30028 23.1976 4.6665 23.4545C4.18295 23.6474 3.72873 23.5892 3.30384 23.2799C2.87895 22.9705 2.6665 22.5425 2.6665 21.9959V9.10919C2.6665 8.77941 2.75317 8.47319 2.9265 8.19052C3.09984 7.90785 3.34295 7.71141 3.65584 7.60119C4.43895 7.2563 5.25361 7.00608 6.09984 6.85052C6.94606 6.69497 7.80161 6.61719 8.6665 6.61719C9.97317 6.61719 11.2469 6.80519 12.4878 7.18119C13.7305 7.55719 14.9012 8.10385 15.9998 8.82119C17.0994 8.10385 18.2701 7.55719 19.5118 7.18119C20.7536 6.80519 22.0274 6.61719 23.3332 6.61719C24.1981 6.61719 25.0536 6.69497 25.8998 6.85052C26.7461 7.00608 27.5607 7.2563 28.3438 7.60119C28.6567 7.7123 28.8998 7.90874 29.0732 8.19052C29.2465 8.4723 29.3332 8.77852 29.3332 9.10919V21.9959C29.3332 22.5416 29.1038 22.9607 28.6452 23.2532C28.1856 23.5447 27.6967 23.5941 27.1785 23.4012C26.5625 23.1612 25.9323 22.9879 25.2878 22.8812C24.6443 22.7736 23.9927 22.7199 23.3332 22.7199C22.2309 22.7199 21.1549 22.8559 20.1052 23.1279C19.0554 23.3999 18.0461 23.8003 17.0772 24.3292C16.9172 24.4119 16.7501 24.479 16.5758 24.5305C16.4007 24.583 16.2087 24.6092 15.9998 24.6092ZM18.5132 11.9319C18.5132 11.8341 18.5469 11.7354 18.6145 11.6359C18.6821 11.5363 18.7621 11.4616 18.8545 11.4119C19.5327 11.1043 20.2496 10.8687 21.0052 10.7052C21.7607 10.5434 22.5367 10.4625 23.3332 10.4625C23.7598 10.4625 24.1643 10.4861 24.5465 10.5332C24.9287 10.5803 25.3225 10.6483 25.7278 10.7372C25.8425 10.7639 25.9421 10.8239 26.0265 10.9172C26.1118 11.0096 26.1545 11.1239 26.1545 11.2599C26.1545 11.4839 26.0878 11.6465 25.9545 11.7479C25.8212 11.8492 25.6425 11.8723 25.4185 11.8172C25.0896 11.7505 24.7532 11.7047 24.4092 11.6799C24.0643 11.655 23.7056 11.6425 23.3332 11.6425C22.6185 11.6425 21.9194 11.711 21.2358 11.8479C20.5514 11.9847 19.9025 12.1759 19.2892 12.4212C19.0607 12.5092 18.8741 12.507 18.7292 12.4145C18.5843 12.3221 18.5123 12.1612 18.5132 11.9319ZM18.5132 19.1625C18.5132 19.0647 18.5469 18.9621 18.6145 18.8545C18.6821 18.7452 18.7621 18.6661 18.8545 18.6172C19.4989 18.3096 20.2158 18.0785 21.0052 17.9239C21.7945 17.7701 22.5705 17.6932 23.3332 17.6932C23.7598 17.6932 24.1643 17.7167 24.5465 17.7639C24.9287 17.811 25.3225 17.879 25.7278 17.9679C25.8425 17.9945 25.9421 18.0545 26.0265 18.1479C26.1118 18.2403 26.1545 18.3545 26.1545 18.4905C26.1545 18.7145 26.0878 18.8772 25.9545 18.9785C25.8212 19.0799 25.6425 19.103 25.4185 19.0479C25.0896 18.9812 24.7532 18.9354 24.4092 18.9105C24.0643 18.8856 23.7056 18.8732 23.3332 18.8732C22.6363 18.8732 21.9501 18.9443 21.2745 19.0865C20.5989 19.2296 19.9545 19.4327 19.3412 19.6959C19.1118 19.8007 18.9163 19.7994 18.7545 19.6919C18.5927 19.5843 18.5123 19.4079 18.5132 19.1625ZM18.5132 15.5732C18.5132 15.4754 18.5469 15.3767 18.6145 15.2772C18.6821 15.1776 18.7621 15.103 18.8545 15.0532C19.5327 14.7447 20.2496 14.5092 21.0052 14.3465C21.7607 14.1847 22.5367 14.1039 23.3332 14.1039C23.7598 14.1039 24.1643 14.1274 24.5465 14.1745C24.9287 14.2216 25.3225 14.2896 25.7278 14.3785C25.8425 14.4052 25.9421 14.4647 26.0265 14.5572C26.1118 14.6496 26.1545 14.7643 26.1545 14.9012C26.1545 15.1252 26.0878 15.2879 25.9545 15.3892C25.8212 15.4905 25.6425 15.5132 25.4185 15.4572C25.0896 15.3905 24.7532 15.3452 24.4092 15.3212C24.0643 15.2963 23.7056 15.2839 23.3332 15.2839C22.6185 15.2839 21.9194 15.3523 21.2358 15.4892C20.5514 15.6252 19.9025 15.8163 19.2892 16.0625C19.0607 16.1496 18.8741 16.1474 18.7292 16.0559C18.5852 15.9625 18.5132 15.8016 18.5132 15.5732Z" fill="black"/>
</svg>
