<svg width="32" height="32" viewBox="0 0 32 32" fill="none" xmlns="http://www.w3.org/2000/svg">
<path d="M24.0999 2.07031L29.6639 7.87031V29.9263H8.87891V29.9983H29.7349V7.94331L24.0999 2.07031Z" fill="#909090"/>
<path d="M24.0311 2H8.80811V29.928H29.6641V7.873L24.0311 2Z" fill="#F4F4F4"/>
<path d="M8.65489 3.5H2.26489V10.327H22.3649V3.5H8.65489Z" fill="#7A7B7C"/>
<path d="M22.472 10.2148H2.39502V3.38281H22.472V10.2148Z" fill="#DD2025"/>
<path d="M9.05212 4.53075H7.74512V9.33075H8.77312V7.71175L9.00012 7.72475C9.22076 7.72171 9.43938 7.68217 9.64712 7.60775C9.82974 7.54574 9.99758 7.44667 10.1401 7.31675C10.2863 7.19419 10.4011 7.03855 10.4751 6.86275C10.5764 6.57146 10.6122 6.26145 10.5801 5.95475C10.5744 5.7356 10.536 5.51853 10.4661 5.31075C10.4031 5.16055 10.3095 5.02516 10.1912 4.91324C10.0729 4.80131 9.93256 4.71531 9.77912 4.66075C9.64683 4.61175 9.50974 4.57689 9.37012 4.55675C9.26465 4.53957 9.15797 4.53088 9.05112 4.53075M8.86212 6.82475H8.77312V5.34475H8.96612C9.0513 5.3386 9.13677 5.35168 9.21622 5.38301C9.29566 5.41434 9.36706 5.46312 9.42512 5.52575C9.54544 5.68676 9.60971 5.88275 9.60812 6.08375C9.60812 6.32975 9.60812 6.55275 9.38612 6.70975C9.22622 6.79782 9.04415 6.83843 8.86212 6.82475ZM12.5331 4.51775C12.4221 4.51775 12.3141 4.52575 12.2381 4.52875L12.0001 4.53475H11.2201V9.33475H12.1381C12.4889 9.34377 12.8381 9.28433 13.1661 9.15975C13.4302 9.05544 13.664 8.88664 13.8461 8.66875C14.0246 8.4499 14.152 8.19403 14.2191 7.91975C14.298 7.60967 14.3363 7.29068 14.3331 6.97075C14.3527 6.5929 14.3235 6.21411 14.2461 5.84375C14.1721 5.57144 14.0351 5.32035 13.8461 5.11075C13.6979 4.94126 13.5156 4.80495 13.3111 4.71075C13.1359 4.62955 12.9516 4.56978 12.7621 4.53275C12.6868 4.52039 12.6105 4.51471 12.5341 4.51575M12.3521 8.45275H12.2521V5.38875H12.2651C12.4713 5.36491 12.6799 5.40211 12.8651 5.49575C13.0008 5.60407 13.1113 5.74055 13.1891 5.89575C13.2731 6.05908 13.3215 6.23835 13.3311 6.42175C13.3401 6.64175 13.3311 6.82175 13.3311 6.97075C13.3348 7.14237 13.3238 7.314 13.2981 7.48375C13.2667 7.65781 13.2097 7.82629 13.1291 7.98375C13.0381 8.13059 12.9137 8.25392 12.7661 8.34375C12.6428 8.42375 12.4967 8.461 12.3501 8.44975M17.4301 4.53475H15.0001V9.33475H16.0281V7.43075H17.3281V6.53875H16.0281V5.42675H17.4281V4.53475" fill="#464648"/>
<path d="M21.7812 20.2535C21.7812 20.2535 24.9692 19.6755 24.9692 20.7645C24.9692 21.8535 22.9942 21.4105 21.7812 20.2535ZM19.4242 20.3365C18.9176 20.4482 18.4239 20.612 17.9512 20.8255L18.3512 19.9255C18.7512 19.0255 19.1662 17.7985 19.1662 17.7985C19.6423 18.6027 20.1977 19.3571 20.8242 20.0505C20.3526 20.1208 19.8852 20.2169 19.4242 20.3385V20.3365ZM18.1622 13.8365C18.1622 12.8875 18.4692 12.6285 18.7082 12.6285C18.9472 12.6285 19.2162 12.7435 19.2252 13.5675C19.1472 14.3961 18.9737 15.2128 18.7082 16.0015C18.3432 15.3398 18.1548 14.5952 18.1612 13.8395L18.1622 13.8365ZM13.5132 24.3525C12.5352 23.7675 15.5642 21.9665 16.1132 21.9085C16.1102 21.9095 14.5372 24.9645 13.5132 24.3525ZM25.9002 20.8935C25.8902 20.7935 25.8002 19.6865 23.8302 19.7335C23.009 19.7192 22.1882 19.777 21.3772 19.9065C20.5911 19.1153 19.9144 18.2223 19.3652 17.2515C19.711 16.2508 19.9205 15.2081 19.9882 14.1515C19.9592 12.9515 19.6722 12.2635 18.7522 12.2735C17.8322 12.2835 17.6982 13.0885 17.8192 14.2865C17.9376 15.0916 18.1612 15.8777 18.4842 16.6245C18.4842 16.6245 18.0592 17.9475 17.4972 19.2635C16.9352 20.5795 16.5512 21.2695 16.5512 21.2695C15.5738 21.5873 14.6537 22.06 13.8262 22.6695C13.0022 23.4365 12.6672 24.0255 13.1012 24.6145C13.4752 25.1225 14.7842 25.2375 15.9542 23.7045C16.5748 22.912 17.1427 22.0795 17.6542 21.2125C17.6542 21.2125 19.4382 20.7235 19.9932 20.5895C20.5482 20.4555 21.2192 20.3495 21.2192 20.3495C21.2192 20.3495 22.8482 21.9885 24.4192 21.9305C25.9902 21.8725 25.9142 20.9915 25.9042 20.8955" fill="#DD2025"/>
<path d="M23.9541 2.07812V7.95112H29.5871L23.9541 2.07812Z" fill="#909090"/>
<path d="M24.031 2V7.873H29.664L24.031 2Z" fill="#F4F4F4"/>
<path d="M8.97497 4.45262H7.66797V9.25262H8.69997V7.63462L8.92797 7.64762C9.14861 7.64458 9.36723 7.60505 9.57497 7.53062C9.75759 7.46861 9.92543 7.36954 10.068 7.23962C10.213 7.11673 10.3268 6.96112 10.4 6.78562C10.5012 6.49433 10.5371 6.18433 10.505 5.87762C10.4993 5.65847 10.4608 5.44141 10.391 5.23362C10.328 5.08343 10.2344 4.94804 10.1161 4.83611C9.99778 4.72418 9.85741 4.63819 9.70397 4.58362C9.57108 4.53415 9.4333 4.49895 9.29297 4.47862C9.1875 4.46145 9.08083 4.45275 8.97397 4.45262M8.78497 6.74662H8.69597V5.26662H8.88997C8.97515 5.26048 9.06062 5.27355 9.14007 5.30488C9.21952 5.33621 9.29091 5.38499 9.34897 5.44762C9.46929 5.60864 9.53356 5.80462 9.53197 6.00562C9.53197 6.25162 9.53197 6.47462 9.30997 6.63162C9.15008 6.71969 8.968 6.75931 8.78597 6.74562M12.456 4.43962C12.345 4.43962 12.237 4.44762 12.161 4.45062L11.926 4.45662H11.146V9.25662H12.064C12.4148 9.26564 12.7639 9.2062 13.092 9.08162C13.3561 8.97732 13.5899 8.80851 13.772 8.59062C13.9504 8.37177 14.0778 8.1159 14.145 7.84162C14.2238 7.53155 14.2622 7.21255 14.259 6.89262C14.2785 6.51478 14.2493 6.13598 14.172 5.76562C14.0979 5.49331 13.9609 5.24222 13.772 5.03262C13.6238 4.86313 13.4415 4.72683 13.237 4.63262C13.0618 4.55142 12.8775 4.49165 12.688 4.45462C12.6126 4.44227 12.5363 4.43658 12.46 4.43762M12.278 8.37462H12.178V5.31062H12.191C12.3971 5.28678 12.6058 5.32399 12.791 5.41762C12.9266 5.52595 13.0372 5.66242 13.115 5.81762C13.1989 5.98096 13.2473 6.16023 13.257 6.34362C13.266 6.56362 13.257 6.74362 13.257 6.89262C13.2607 7.06425 13.2496 7.23588 13.224 7.40562C13.1925 7.57969 13.1356 7.74816 13.055 7.90562C12.9639 8.05246 12.8396 8.1758 12.692 8.26562C12.5687 8.34562 12.4225 8.38287 12.276 8.37162M17.353 4.45662H14.923V9.25662H15.951V7.35262H17.251V6.46062H15.951V5.34862H17.351V4.45662" fill="white"/>
</svg>
