<svg width="124" height="124" viewBox="0 0 124 124" fill="none" xmlns="http://www.w3.org/2000/svg">
<path d="M55.7411 108.314C55.4402 108.315 55.1422 108.256 54.8642 108.14C54.5862 108.025 54.3336 107.856 54.1211 107.643C53.2264 106.749 53.2264 105.298 54.1211 104.403L57.0632 101.461C59.0286 99.4957 59.0286 96.2972 57.0632 94.3317C55.0975 92.366 51.8994 92.3664 49.9339 94.3317L47.6152 96.6504C44.0392 100.226 38.2207 100.226 34.6449 96.6504C31.0689 93.0744 31.0689 87.2559 34.6449 83.6799L45.1851 73.1396C46.0798 72.2451 47.5303 72.2451 48.4252 73.1396C49.3199 74.0343 49.3199 75.4848 48.4252 76.3797L37.885 86.92C36.0956 88.7094 36.0956 91.6211 37.885 93.4105C39.6743 95.1997 42.5859 95.1995 44.3755 93.4105L46.6942 91.0918C48.5119 89.2743 50.9284 88.2735 53.4989 88.2735C56.0695 88.2735 58.486 89.2743 60.3036 91.0918C64.0555 94.8441 64.0555 100.949 60.3036 104.701L57.3616 107.643C57.149 107.856 56.8964 108.025 56.6183 108.14C56.3402 108.256 56.0421 108.315 55.7411 108.314Z" fill="#597B91"/>
<path d="M53.7737 79.6966L45.9049 82.0531C41.7514 83.297 37.8802 79.4256 39.1241 75.2723L41.4807 67.4036C42.2226 64.926 43.4457 62.619 45.0802 60.6146L62.1273 39.708C64.1661 37.2076 67.9194 37.0173 70.2006 39.2986L81.8786 50.9766C84.1599 53.2578 83.9696 57.0111 81.4692 59.0499L60.5626 76.0971C58.5583 77.7315 56.2513 78.9547 53.7737 79.6966Z" fill="#445056"/>
<path d="M86.8565 52.7951C97.0582 52.7951 105.328 44.525 105.328 34.3233C105.328 24.1217 97.0582 15.8516 86.8565 15.8516C76.6549 15.8516 68.3848 24.1217 68.3848 34.3233C68.3848 44.525 76.6549 52.7951 86.8565 52.7951Z" fill="#B9C5C6"/>
<path d="M97.4773 48.7536C84.1534 47.6428 73.5314 37.021 72.4208 23.6971C72.3026 22.2804 72.825 20.8843 73.8302 19.8791L75.259 18.4503C76.3346 17.3747 78.1822 17.9839 78.3963 19.4898C80.1096 31.536 89.6386 41.065 101.685 42.7783C103.191 42.9924 103.8 44.84 102.724 45.9156L101.296 47.3444C100.29 48.3494 98.8942 48.8718 97.4773 48.7536Z" fill="#96A9B2"/>
<path d="M45.9904 49.5424C45.9904 49.5587 45.9884 49.5746 45.988 49.5908C45.9886 49.6231 45.9904 49.6551 45.9904 49.6876C45.9904 52.8693 43.4111 55.4488 40.2292 55.4488C37.0474 55.4488 34.468 52.8695 34.468 49.6876C34.468 46.5059 37.0472 43.9264 40.2292 43.9264C41.0766 43.9264 41.8805 44.1109 42.6051 44.4394V32.292L26.4566 41.2071V61.0423C26.4566 61.1138 26.4506 61.1801 26.442 61.2437C26.3357 64.332 23.8002 66.8035 20.686 66.8035C17.5043 66.8035 14.9248 64.2242 14.9248 61.0423C14.9248 57.8604 17.5041 55.2811 20.686 55.2811C21.5371 55.2811 22.3443 55.4671 23.0713 55.7982V33.055C23.0712 32.7524 23.1524 32.4553 23.3062 32.1946C23.46 31.934 23.6809 31.7193 23.9458 31.573L43.4796 20.7891C43.7373 20.6468 44.0277 20.5741 44.3221 20.5783C44.6165 20.5825 44.9048 20.6634 45.1583 20.8131C45.4119 20.9627 45.622 21.1759 45.768 21.4316C45.9139 21.6873 45.9907 21.9767 45.9906 22.2711V49.5424H45.9904ZM101.544 66.073L93.4527 70.5398C93.1877 70.6861 92.9669 70.9008 92.813 71.1614C92.6592 71.4221 92.5781 71.7192 92.5781 72.0218V94.7652C91.8293 94.4237 91.0158 94.2473 90.1928 94.2481C87.0111 94.2481 84.4316 96.8273 84.4316 100.009C84.4316 103.191 87.0109 105.77 90.1928 105.77C93.307 105.77 95.8425 103.299 95.9489 100.211C95.9574 100.147 95.9634 100.081 95.9634 100.009V80.8426C95.9634 80.6401 96.0177 80.4412 96.1207 80.2668C96.2236 80.0923 96.3714 79.9487 96.5487 79.8507L102.639 76.4885C102.816 76.3906 102.964 76.2469 103.067 76.0725C103.17 75.898 103.224 75.6992 103.224 75.4966V67.0647C103.225 66.2022 102.299 65.656 101.544 66.073Z" fill="#00D1AE"/>
<path d="M61.1817 64.5805C60.5799 64.5813 59.9838 64.4631 59.4278 64.2328C58.8717 64.0025 58.3667 63.6646 57.9416 63.2385C56.1523 61.4491 56.1523 58.5479 57.9416 56.7585L63.2098 51.4904C64.9994 49.7012 67.9006 49.701 69.6898 51.4904C71.479 53.2798 71.479 56.181 69.6898 57.9704L64.4214 63.2385C63.9965 63.6646 63.4915 64.0025 62.9355 64.2328C62.3795 64.4631 61.7835 64.5812 61.1817 64.5805Z" fill="#597B91"/>
<path d="M87.6712 22.5547C90.8486 22.5547 93.4244 21.4844 93.4244 20.1641C93.4244 18.8438 90.8486 17.7734 87.6712 17.7734C84.4938 17.7734 81.918 18.8438 81.918 20.1641C81.918 21.4844 84.4938 22.5547 87.6712 22.5547Z" fill="#DCE2E2"/>
</svg>
