<svg width="20" height="20" viewBox="0 0 20 20" fill="none" xmlns="http://www.w3.org/2000/svg">
<path d="M15.7451 14.4957L11.3263 18.9157C11.1522 19.09 10.9455 19.2282 10.7179 19.3225C10.4903 19.4168 10.2464 19.4653 10.0001 19.4653C9.75377 19.4653 9.50985 19.4168 9.28229 19.3225C9.05473 19.2282 8.84797 19.09 8.67385 18.9157L4.2551 14.4957C3.50057 13.7413 2.90203 12.8456 2.49366 11.8598C2.08528 10.8741 1.87506 9.81754 1.875 8.75054C1.87494 7.68354 2.08505 6.62697 2.49332 5.64117C2.90159 4.65536 3.50003 3.75962 4.25447 3.0051C5.00892 2.25057 5.90459 1.65203 6.89035 1.24366C7.87611 0.835277 8.93265 0.625058 9.99966 0.625C11.0667 0.624942 12.1232 0.835046 13.109 1.24332C14.0948 1.65159 14.9906 2.25003 15.7451 3.00447C16.4997 3.75896 17.0983 4.65471 17.5067 5.64055C17.915 6.62639 18.1252 7.68302 18.1252 8.7501C18.1252 9.81718 17.915 10.8738 17.5067 11.8597C17.0983 12.8455 16.4997 13.7412 15.7451 14.4957ZM14.4201 4.33072C13.8397 3.75028 13.1506 3.28985 12.3922 2.97572C11.6338 2.66158 10.821 2.4999 10.0001 2.4999C9.17923 2.4999 8.3664 2.66158 7.60801 2.97572C6.84963 3.28985 6.16054 3.75028 5.5801 4.33072C4.99966 4.91117 4.53922 5.60025 4.22509 6.35864C3.91096 7.11702 3.74927 7.92985 3.74927 8.75072C3.74927 9.57159 3.91096 10.3844 4.22509 11.1428C4.53922 11.9012 4.99966 12.5903 5.5801 13.1707L10.0001 17.5882L14.4201 13.1707C15.0006 12.5903 15.4612 11.9013 15.7754 11.1429C16.0895 10.3845 16.2513 9.57162 16.2513 8.75072C16.2513 7.92982 16.0895 7.11696 15.7754 6.35857C15.4612 5.60018 15.0006 4.91111 14.4201 4.33072ZM10.0001 11.2507C9.66718 11.2583 9.3361 11.1992 9.02632 11.077C8.71653 10.9548 8.43428 10.772 8.19613 10.5392C7.95798 10.3065 7.76874 10.0285 7.63951 9.72154C7.51028 9.41463 7.44366 9.085 7.44358 8.75199C7.4435 8.41898 7.50994 8.08931 7.63902 7.78233C7.7681 7.47536 7.95721 7.19727 8.19524 6.96438C8.43327 6.7315 8.71543 6.54851 9.02516 6.42618C9.33488 6.30384 9.66592 6.24461 9.99885 6.25197C10.6521 6.26642 11.2736 6.53601 11.7306 7.00302C12.1875 7.47004 12.4434 8.09738 12.4436 8.75074C12.4437 9.4041 12.1881 10.0316 11.7314 10.4988C11.2748 10.9661 10.6533 11.236 10.0001 11.2507Z" fill="#333333"/>
</svg>
