<svg width="28" height="28" viewBox="0 0 28 28" fill="none" xmlns="http://www.w3.org/2000/svg">
<path fill-rule="evenodd" clip-rule="evenodd" d="M19.4482 15.3183C21.0466 16.4033 22.1666 17.8733 22.1666 19.8333V23.3333H25.6666C26.3082 23.3333 26.8332 22.8083 26.8332 22.1667V19.8333C26.8332 17.29 22.6682 15.785 19.4482 15.3183Z" fill="black"/>
<path d="M10.5007 14.0002C13.078 14.0002 15.1673 11.9109 15.1673 9.33356C15.1673 6.75623 13.078 4.66689 10.5007 4.66689C7.92332 4.66689 5.83398 6.75623 5.83398 9.33356C5.83398 11.9109 7.92332 14.0002 10.5007 14.0002Z" fill="black"/>
<path fill-rule="evenodd" clip-rule="evenodd" d="M17.4993 14.0002C20.0777 14.0002 22.166 11.9119 22.166 9.33356C22.166 6.75523 20.0777 4.66689 17.4993 4.66689C16.951 4.66689 16.4377 4.78356 15.9477 4.94689C16.9516 6.18848 17.4993 7.73686 17.4993 9.33356C17.4993 10.9303 16.9516 12.4786 15.9477 13.7202C16.4377 13.8836 16.951 14.0002 17.4993 14.0002ZM10.4993 15.1669C7.38435 15.1669 1.16602 16.7302 1.16602 19.8336V22.1669C1.16602 22.8086 1.69102 23.3336 2.33268 23.3336H18.666C19.3077 23.3336 19.8327 22.8086 19.8327 22.1669V19.8336C19.8327 16.7302 13.6143 15.1669 10.4993 15.1669Z" fill="black"/>
</svg>
