<svg width="16" height="16" viewBox="0 0 16 16" fill="none" xmlns="http://www.w3.org/2000/svg">
<path d="M9.3901 1.15653L10.8002 3.99563C10.9902 4.38827 11.5002 4.76078 11.9303 4.84132L14.4804 5.26416C16.1106 5.53599 16.4906 6.72398 15.3205 7.91198L13.3304 9.91545C13.0003 10.2477 12.8103 10.9021 12.9203 11.3753L13.4904 13.8519C13.9404 15.8051 12.9003 16.5702 11.1902 15.5433L8.80006 14.1137C8.37003 13.8519 7.64998 13.8519 7.21995 14.1137L4.82978 15.5433C3.11967 16.5602 2.0796 15.8051 2.52963 13.8519L3.09967 11.3753C3.18967 10.892 2.99966 10.2376 2.66964 9.90539L0.6795 7.90191C-0.49058 6.72398 -0.110554 5.53599 1.51956 5.2541L4.06973 4.83125C4.49976 4.76078 5.0098 4.37821 5.19981 3.98556L6.60991 1.14647C7.37996 -0.383829 8.62004 -0.383829 9.3901 1.15653Z" fill="url(#paint0_linear_1_5200)"/>
<defs>
<linearGradient id="paint0_linear_1_5200" x1="0" y1="8" x2="16" y2="8" gradientUnits="userSpaceOnUse">
<stop stop-color="#F6D365"/>
<stop offset="1" stop-color="#FBB708"/>
</linearGradient>
</defs>
</svg>
